<svg height="480pt" viewBox="0 -72 480.00002 480" width="480pt" xmlns="http://www.w3.org/2000/svg"><path d="m272 8c0-4.417969-3.582031-8-8-8h-224c-22.082031.0273438-39.9726562 17.917969-40 40v256c-.0117188 10.613281 4.199219 20.792969 11.703125 28.296875s17.683594 11.714844 28.296875 11.703125h208c4.417969 0 8-3.582031 8-8v-56h8c4.417969 0 8-3.582031 8-8zm-256 32c0-13.253906 10.746094-24 24-24h8v240h-8c-2.488281.019531-4.972656.269531-7.414062.753906-.800782.140625-1.496094.375-2.25.558594-1.617188.394531-3.207032.894531-4.761719 1.488281-.796875.3125-1.597657.65625-2.398438 1.023438-1.4375.671875-2.832031 1.425781-4.175781 2.265625-.695312.429687-1.390625.796875-2.054688 1.308594-.3125.226562-.671874.394531-.976562.617187zm224 248h-200v16h200v16h-200c-13.253906 0-24-10.746094-24-24s10.746094-24 24-24h200zm16-32h-192v-240h192zm0 0"/><path d="m96 112h128c4.417969 0 8-3.582031 8-8v-48c0-4.417969-3.582031-8-8-8h-128c-4.417969 0-8 3.582031-8 8v48c0 4.417969 3.582031 8 8 8zm8-48h112v32h-112zm0 0"/><path d="m472 128h-46.886719c-1.390625-3.992188-2.992187-7.90625-4.800781-11.726562l33.136719-33.121094c1.5-1.5 2.34375-3.535156 2.34375-5.660156s-.84375-4.160157-2.34375-5.660157l-45.257813-45.257812c-3.175781-2.996094-8.140625-2.996094-11.320312 0l-33.117188 33.128906c-3.824218-1.804687-7.738281-3.40625-11.730468-4.800781v-46.902344c0-4.417969-3.582032-8-8-8h-56.023438v16h48v44.695312c0 3.542969 2.324219 6.664063 5.71875 7.671876 6.847656 2.019531 13.46875 4.746093 19.753906 8.128906 3.109375 1.683594 6.960938 1.125 9.464844-1.375l31.566406-31.578125 33.953125 33.953125-31.585937 31.566406c-2.496094 2.507812-3.054688 6.355469-1.367188 9.464844 3.378906 6.289062 6.101563 12.90625 8.121094 19.753906 1.007812 3.394531 4.128906 5.71875 7.671875 5.71875h44.703125v48h-44.703125c-3.542969 0-6.664063 2.324219-7.671875 5.71875-2.015625 6.847656-4.738281 13.460938-8.121094 19.746094-1.691406 3.109375-1.132812 6.964844 1.367188 9.472656l31.585937 31.566406-33.953125 33.953125-31.566406-31.578125c-2.503906-2.5-6.355469-3.058594-9.464844-1.375-6.289062 3.382813-12.90625 6.105469-19.753906 8.128906-3.394531 1.007813-5.71875 4.128907-5.71875 7.671876v44.695312h-48v-44.695312h-16v52.695312c0 4.417969 3.582031 8 8 8h64c4.417969 0 8-3.582031 8-8v-46.886719c3.988281-1.398437 7.90625-3 11.726562-4.800781l33.121094 33.128906c1.5 1.5 3.535156 2.34375 5.660156 2.34375s4.160157-.84375 5.660157-2.34375l45.257812-45.257812c1.5-1.5 2.34375-3.535156 2.34375-5.660156 0-2.121094-.84375-4.160157-2.34375-5.660157l-33.136719-33.128906c1.808594-3.816406 3.410157-7.726563 4.800782-11.71875h46.910156c4.417969 0 8-3.582031 8-8v-64.015625c0-4.417969-3.582031-8-8-8zm0 0"/><path d="m312 216c-7.113281.019531-14.140625-1.554688-20.558594-4.617188l-6.882812 14.449219c8.570312 4.085938 17.949218 6.191407 27.441406 6.167969 35.347656 0 64-28.652344 64-64s-28.652344-64-64-64c-9.492188-.023438-18.871094 2.082031-27.441406 6.167969l6.882812 14.449219c6.417969-3.0625 13.445313-4.636719 20.558594-4.617188 26.507812 0 48 21.492188 48 48s-21.492188 48-48 48zm0 0"/></svg>